<svg id="visual" viewBox="0 0 900 600" width="900" height="600" xmlns="http://www.w3.org/2000/svg" xmlns:xlink="http://www.w3.org/1999/xlink" version="1.1"><path d="M0 103L37.5 116C75 129 150 155 225 155C300 155 375 129 450 117C525 105 600 107 675 109C750 111 825 113 862.5 114L900 115L900 0L862.5 0C825 0 750 0 675 0C600 0 525 0 450 0C375 0 300 0 225 0C150 0 75 0 37.5 0L0 0Z" fill="#cccccc"></path><path d="M0 253L37.5 280C75 307 150 361 225 382C300 403 375 391 450 370C525 349 600 319 675 329C750 339 825 389 862.5 414L900 439L900 113L862.5 112C825 111 750 109 675 107C600 105 525 103 450 115C375 127 300 153 225 153C150 153 75 127 37.5 114L0 101Z" fill="#d4d5d5"></path><path d="M0 601L37.5 601C75 601 150 601 225 601C300 601 375 601 450 601C525 601 600 601 675 601C750 601 825 601 862.5 601L900 601L900 437L862.5 412C825 387 750 337 675 327C600 317 525 347 450 368C375 389 300 401 225 380C150 359 75 305 37.5 278L0 251Z" fill="#dddedf"></path></svg>